ffmpeg started on 2016-12-12 at 09:12:40
Report written to "Output/theora/results/ffmpeg/Tcrowd_run_2160p5011000k.log"
Command line:
Tools/ffmpeg/ffmpeg -i Output/theora/encoded/crowd_run_2160p5011000k.mkv -c:v rawvideo -pix_fmt yuv420p Output/theora/transcoded/crowd_run_2160p5011000k.yuv
ffmpeg version N-82227-gdb23fde Copyright (c) 2000-2016 the FFmpeg developers
  built with gcc 5.4.0 (Ubuntu 5.4.0-6ubuntu1~16.04.2) 20160609
  configuration: --prefix=/home/jaroslav/ffmpeg_build --pkg-config-flags=--static --extra-cflags=-I/home/jaroslav/ffmpeg_build/include --extra-ldflags=-L/home/jaroslav/ffmpeg_build/lib --bindir=/home/jaroslav/bin --enable-gpl --enable-libass --enable-libfdk-aac --enable-libfreetype --enable-libmp3lame --enable-libopus --enable-libtheora --enable-libvorbis --enable-libvpx --enable-libx264 --enable-libx265 --enable-nvenc --enable-libmfx --enable-libxvid --enable-libgsm --enable-libopencore-amrnb --enable-version3 --enable-nonfree
  libavutil      55. 35.100 / 55. 35.100
  libavcodec     57. 66.101 / 57. 66.101
  libavformat    57. 57.100 / 57. 57.100
  libavdevice    57.  2.100 / 57.  2.100
  libavfilter     6. 66.100 /  6. 66.100
  libswscale      4.  3.100 /  4.  3.100
  libswresample   2.  4.100 /  2.  4.100
  libpostproc    54.  2.100 / 54.  2.100
Input #0, matroska,webm, from 'Output/theora/encoded/crowd_run_2160p5011000k.mkv':
  Metadata:
    ENCODER         : Lavf57.57.100
  Duration: 00:00:10.00, start: 0.000000, bitrate: 12035 kb/s
    Stream #0:0: Video: theora, yuv420p(progressive), 3840x2160 [SAR 1:1 DAR 16:9], 50 fps, 50 tbr, 1k tbn, 50 tbc (default)
    Metadata:
      ENCODER         : Lavc57.66.101 libtheora
      DURATION        : 00:00:10.000000000
Output #0, rawvideo, to 'Output/theora/transcoded/crowd_run_2160p5011000k.yuv':
  Metadata:
    encoder         : Lavf57.57.100
    Stream #0:0: Video: rawvideo (I420 / 0x30323449), yuv420p, 3840x2160 [SAR 1:1 DAR 16:9], q=2-31, 200 kb/s, 50 fps, 50 tbn, 50 tbc (default)
    Metadata:
      DURATION        : 00:00:10.000000000
      encoder         : Lavc57.66.101 rawvideo
Stream mapping:
  Stream #0:0 -> #0:0 (theora (native) -> rawvideo (native))
Press [q] to stop, [?] for help
frame=   17 fps=0.0 q=-0.0 size=  206550kB time=00:00:00.34 bitrate=4976640.0kbits/s speed=0.667x    frame=   34 fps= 33 q=-0.0 size=  413100kB time=00:00:00.68 bitrate=4976640.0kbits/s speed=0.667x    frame=   51 fps= 33 q=-0.0 size=  619650kB time=00:00:01.02 bitrate=4976640.0kbits/s speed=0.666x    frame=   68 fps= 33 q=-0.0 size=  826200kB time=00:00:01.36 bitrate=4976640.0kbits/s speed=0.667x    frame=   85 fps= 33 q=-0.0 size= 1032750kB time=00:00:01.70 bitrate=4976640.0kbits/s dup=4 drop=0 speed=0.668x    frame=  104 fps= 33 q=-0.0 size= 1263600kB time=00:00:02.08 bitrate=4976640.0kbits/s dup=16 drop=0 speed=0.669x    frame=  121 fps= 33 q=-0.0 size= 1470150kB time=00:00:02.42 bitrate=4976640.0kbits/s dup=25 drop=0 speed=0.669x    frame=  139 fps= 33 q=-0.0 size= 1688850kB time=00:00:02.78 bitrate=4976640.0kbits/s dup=37 drop=0 speed=0.67x    frame=  157 fps= 34 q=-0.0 size= 1907550kB time=00:00:03.14 bitrate=4976640.0kbits/s dup=47 drop=0 speed=0.675x    frame=  177 fps= 33 q=-0.0 size= 2150550kB time=00:00:03.54 bitrate=4976640.0kbits/s dup=59 drop=0 speed=0.67x    frame=  198 fps= 34 q=-0.0 size= 2405700kB time=00:00:03.96 bitrate=4976640.0kbits/s dup=72 drop=0 speed=0.683x    frame=  212 fps= 33 q=-0.0 size= 2575800kB time=00:00:04.24 bitrate=4976640.0kbits/s dup=80 drop=0 speed=0.669x    frame=  235 fps= 34 q=-0.0 size= 2855250kB time=00:00:04.70 bitrate=4976640.0kbits/s dup=95 drop=0 speed=0.683x    frame=  249 fps= 34 q=-0.0 size= 3025350kB time=00:00:04.98 bitrate=4976640.0kbits/s dup=103 drop=0 speed=0.671x    frame=  265 fps= 33 q=-0.0 size= 3219750kB time=00:00:05.30 bitrate=4976640.0kbits/s dup=112 drop=0 speed=0.668x    frame=  284 fps= 33 q=-0.0 size= 3450600kB time=00:00:05.68 bitrate=4976640.0kbits/s dup=125 drop=0 speed=0.667x    frame=  307 fps= 34 q=-0.0 size= 3730050kB time=00:00:06.14 bitrate=4976640.0kbits/s dup=140 drop=0 speed=0.674x    frame=  321 fps= 33 q=-0.0 size= 3900150kB time=00:00:06.42 bitrate=4976640.0kbits/s dup=149 drop=0 speed=0.667x    frame=  342 fps= 34 q=-0.0 size= 4155300kB time=00:00:06.84 bitrate=4976640.0kbits/s dup=163 drop=0 speed=0.671x    frame=  357 fps= 33 q=-0.0 size= 4337550kB time=00:00:07.14 bitrate=4976640.0kbits/s dup=172 drop=0 speed=0.663x    frame=  373 fps= 33 q=-0.0 size= 4531950kB time=00:00:07.46 bitrate=4976640.0kbits/s dup=182 drop=0 speed=0.661x    frame=  395 fps= 33 q=-0.0 size= 4799250kB time=00:00:07.90 bitrate=4976640.0kbits/s dup=198 drop=0 speed=0.665x    frame=  405 fps= 32 q=-0.0 size= 4920750kB time=00:00:08.10 bitrate=4976640.0kbits/s dup=205 drop=0 speed=0.649x    frame=  426 fps= 33 q=-0.0 size= 5175900kB time=00:00:08.52 bitrate=4976640.0kbits/s dup=220 drop=0 speed=0.653x    frame=  442 fps= 33 q=-0.0 size= 5370300kB time=00:00:08.84 bitrate=4976640.0kbits/s dup=231 drop=0 speed=0.65x    frame=  457 fps= 32 q=-0.0 size= 5552550kB time=00:00:09.14 bitrate=4976640.0kbits/s dup=241 drop=0 speed=0.647x    frame=  476 fps= 33 q=-0.0 size= 5783400kB time=00:00:09.52 bitrate=4976640.0kbits/s dup=255 drop=0 speed=0.65x    frame=  493 fps= 33 q=-0.0 size= 5989950kB time=00:00:09.86 bitrate=4976640.0kbits/s dup=266 drop=0 speed=0.65x    frame=  500 fps= 32 q=-0.0 Lsize= 6075000kB time=00:00:10.00 bitrate=4976640.0kbits/s dup=271 drop=0 speed=0.646x    
video:6075000kB audio:0kB subtitle:0kB other streams:0kB global headers:0kB muxing overhead: 0.000000%
